<mxfile host="app.diagrams.net" agent="Mozilla/5.0 (Macintosh; Intel Mac OS X 10_15_7) AppleWebKit/537.36 (KHTML, like Gecko) Chrome/131.0.0.0 Safari/537.36" version="24.9.0">
  <diagram name="페이지-1" id="2a3AY58y8ECOFVepI0EB">
    <mxGraphModel dx="2291" dy="735" grid="1" gridSize="10" guides="1" tooltips="1" connect="1" arrows="1" fold="1" page="1" pageScale="1" pageWidth="827" pageHeight="1169" math="0" shadow="0">
      <root>
        <mxCell id="0" />
        <mxCell id="1" parent="0" />
        <mxCell id="5xHakERpuxY836gdrRXx-1" value="User" style="swimlane;fontStyle=0;align=center;verticalAlign=top;childLayout=stackLayout;horizontal=1;startSize=30;horizontalStack=0;resizeParent=1;resizeParentMax=0;resizeLast=0;collapsible=0;marginBottom=0;html=1;whiteSpace=wrap;" vertex="1" parent="1">
          <mxGeometry x="120" y="220" width="220" height="318" as="geometry" />
        </mxCell>
        <mxCell id="5xHakERpuxY836gdrRXx-2" value="attributes" style="text;html=1;strokeColor=none;fillColor=none;align=center;verticalAlign=middle;spacingLeft=4;spacingRight=4;overflow=hidden;rotatable=0;points=[[0,0.5],[1,0.5]];portConstraint=eastwest;whiteSpace=wrap;" vertex="1" parent="5xHakERpuxY836gdrRXx-1">
          <mxGeometry y="30" width="220" height="20" as="geometry" />
        </mxCell>
        <mxCell id="5xHakERpuxY836gdrRXx-3" value="- no: int" style="text;html=1;strokeColor=none;fillColor=none;align=left;verticalAlign=middle;spacingLeft=4;spacingRight=4;overflow=hidden;rotatable=0;points=[[0,0.5],[1,0.5]];portConstraint=eastwest;whiteSpace=wrap;" vertex="1" parent="5xHakERpuxY836gdrRXx-1">
          <mxGeometry y="50" width="220" height="20" as="geometry" />
        </mxCell>
        <mxCell id="5xHakERpuxY836gdrRXx-21" value="- id: String" style="text;html=1;strokeColor=none;fillColor=none;align=left;verticalAlign=middle;spacingLeft=4;spacingRight=4;overflow=hidden;rotatable=0;points=[[0,0.5],[1,0.5]];portConstraint=eastwest;whiteSpace=wrap;" vertex="1" parent="5xHakERpuxY836gdrRXx-1">
          <mxGeometry y="70" width="220" height="20" as="geometry" />
        </mxCell>
        <mxCell id="5xHakERpuxY836gdrRXx-20" value="- pwd: String" style="text;html=1;strokeColor=none;fillColor=none;align=left;verticalAlign=middle;spacingLeft=4;spacingRight=4;overflow=hidden;rotatable=0;points=[[0,0.5],[1,0.5]];portConstraint=eastwest;whiteSpace=wrap;" vertex="1" parent="5xHakERpuxY836gdrRXx-1">
          <mxGeometry y="90" width="220" height="20" as="geometry" />
        </mxCell>
        <mxCell id="5xHakERpuxY836gdrRXx-22" value="- nickname: String" style="text;html=1;strokeColor=none;fillColor=none;align=left;verticalAlign=middle;spacingLeft=4;spacingRight=4;overflow=hidden;rotatable=0;points=[[0,0.5],[1,0.5]];portConstraint=eastwest;whiteSpace=wrap;" vertex="1" parent="5xHakERpuxY836gdrRXx-1">
          <mxGeometry y="110" width="220" height="20" as="geometry" />
        </mxCell>
        <mxCell id="5xHakERpuxY836gdrRXx-23" value="- email: String" style="text;html=1;strokeColor=none;fillColor=none;align=left;verticalAlign=middle;spacingLeft=4;spacingRight=4;overflow=hidden;rotatable=0;points=[[0,0.5],[1,0.5]];portConstraint=eastwest;whiteSpace=wrap;" vertex="1" parent="5xHakERpuxY836gdrRXx-1">
          <mxGeometry y="130" width="220" height="20" as="geometry" />
        </mxCell>
        <mxCell id="5xHakERpuxY836gdrRXx-6" value="" style="line;strokeWidth=1;fillColor=none;align=left;verticalAlign=middle;spacingTop=-1;spacingLeft=3;spacingRight=3;rotatable=0;labelPosition=right;points=[];portConstraint=eastwest;" vertex="1" parent="5xHakERpuxY836gdrRXx-1">
          <mxGeometry y="150" width="220" height="8" as="geometry" />
        </mxCell>
        <mxCell id="5xHakERpuxY836gdrRXx-7" value="operations" style="text;html=1;strokeColor=none;fillColor=none;align=center;verticalAlign=middle;spacingLeft=4;spacingRight=4;overflow=hidden;rotatable=0;points=[[0,0.5],[1,0.5]];portConstraint=eastwest;whiteSpace=wrap;" vertex="1" parent="5xHakERpuxY836gdrRXx-1">
          <mxGeometry y="158" width="220" height="20" as="geometry" />
        </mxCell>
        <mxCell id="5xHakERpuxY836gdrRXx-8" value="+ register( ): void" style="text;html=1;strokeColor=none;fillColor=none;align=left;verticalAlign=middle;spacingLeft=4;spacingRight=4;overflow=hidden;rotatable=0;points=[[0,0.5],[1,0.5]];portConstraint=eastwest;whiteSpace=wrap;" vertex="1" parent="5xHakERpuxY836gdrRXx-1">
          <mxGeometry y="178" width="220" height="20" as="geometry" />
        </mxCell>
        <mxCell id="5xHakERpuxY836gdrRXx-148" value="+ login( ): void" style="text;html=1;strokeColor=none;fillColor=none;align=left;verticalAlign=middle;spacingLeft=4;spacingRight=4;overflow=hidden;rotatable=0;points=[[0,0.5],[1,0.5]];portConstraint=eastwest;whiteSpace=wrap;" vertex="1" parent="5xHakERpuxY836gdrRXx-1">
          <mxGeometry y="198" width="220" height="20" as="geometry" />
        </mxCell>
        <mxCell id="5xHakERpuxY836gdrRXx-37" value="+ logout( ): void" style="text;html=1;strokeColor=none;fillColor=none;align=left;verticalAlign=middle;spacingLeft=4;spacingRight=4;overflow=hidden;rotatable=0;points=[[0,0.5],[1,0.5]];portConstraint=eastwest;whiteSpace=wrap;" vertex="1" parent="5xHakERpuxY836gdrRXx-1">
          <mxGeometry y="218" width="220" height="20" as="geometry" />
        </mxCell>
        <mxCell id="5xHakERpuxY836gdrRXx-149" value="+ deleteAccount( ): void" style="text;html=1;strokeColor=none;fillColor=none;align=left;verticalAlign=middle;spacingLeft=4;spacingRight=4;overflow=hidden;rotatable=0;points=[[0,0.5],[1,0.5]];portConstraint=eastwest;whiteSpace=wrap;" vertex="1" parent="5xHakERpuxY836gdrRXx-1">
          <mxGeometry y="238" width="220" height="20" as="geometry" />
        </mxCell>
        <mxCell id="5xHakERpuxY836gdrRXx-61" value="+ updateUserInfo(user: User): void" style="text;html=1;strokeColor=none;fillColor=none;align=left;verticalAlign=middle;spacingLeft=4;spacingRight=4;overflow=hidden;rotatable=0;points=[[0,0.5],[1,0.5]];portConstraint=eastwest;whiteSpace=wrap;" vertex="1" parent="5xHakERpuxY836gdrRXx-1">
          <mxGeometry y="258" width="220" height="20" as="geometry" />
        </mxCell>
        <mxCell id="5xHakERpuxY836gdrRXx-150" value="+ getMyPosts( ): List&amp;lt;Post&amp;gt;" style="text;html=1;strokeColor=none;fillColor=none;align=left;verticalAlign=middle;spacingLeft=4;spacingRight=4;overflow=hidden;rotatable=0;points=[[0,0.5],[1,0.5]];portConstraint=eastwest;whiteSpace=wrap;" vertex="1" parent="5xHakERpuxY836gdrRXx-1">
          <mxGeometry y="278" width="220" height="20" as="geometry" />
        </mxCell>
        <mxCell id="5xHakERpuxY836gdrRXx-151" value="+ getMyTrips( ): List&amp;lt;Trip&amp;gt;" style="text;html=1;strokeColor=none;fillColor=none;align=left;verticalAlign=middle;spacingLeft=4;spacingRight=4;overflow=hidden;rotatable=0;points=[[0,0.5],[1,0.5]];portConstraint=eastwest;whiteSpace=wrap;" vertex="1" parent="5xHakERpuxY836gdrRXx-1">
          <mxGeometry y="298" width="220" height="20" as="geometry" />
        </mxCell>
        <mxCell id="5xHakERpuxY836gdrRXx-9" value="Post" style="swimlane;fontStyle=0;align=center;verticalAlign=top;childLayout=stackLayout;horizontal=1;startSize=30;horizontalStack=0;resizeParent=1;resizeParentMax=0;resizeLast=0;collapsible=0;marginBottom=0;html=1;whiteSpace=wrap;" vertex="1" parent="1">
          <mxGeometry x="120" y="650" width="220" height="458" as="geometry" />
        </mxCell>
        <mxCell id="5xHakERpuxY836gdrRXx-10" value="attributes" style="text;html=1;strokeColor=none;fillColor=none;align=center;verticalAlign=middle;spacingLeft=4;spacingRight=4;overflow=hidden;rotatable=0;points=[[0,0.5],[1,0.5]];portConstraint=eastwest;whiteSpace=wrap;" vertex="1" parent="5xHakERpuxY836gdrRXx-9">
          <mxGeometry y="30" width="220" height="20" as="geometry" />
        </mxCell>
        <mxCell id="5xHakERpuxY836gdrRXx-11" value="- no: int" style="text;html=1;strokeColor=none;fillColor=none;align=left;verticalAlign=middle;spacingLeft=4;spacingRight=4;overflow=hidden;rotatable=0;points=[[0,0.5],[1,0.5]];portConstraint=eastwest;whiteSpace=wrap;" vertex="1" parent="5xHakERpuxY836gdrRXx-9">
          <mxGeometry y="50" width="220" height="20" as="geometry" />
        </mxCell>
        <mxCell id="5xHakERpuxY836gdrRXx-24" value="- title: String" style="text;html=1;strokeColor=none;fillColor=none;align=left;verticalAlign=middle;spacingLeft=4;spacingRight=4;overflow=hidden;rotatable=0;points=[[0,0.5],[1,0.5]];portConstraint=eastwest;whiteSpace=wrap;" vertex="1" parent="5xHakERpuxY836gdrRXx-9">
          <mxGeometry y="70" width="220" height="20" as="geometry" />
        </mxCell>
        <mxCell id="5xHakERpuxY836gdrRXx-25" value="- content: String" style="text;html=1;strokeColor=none;fillColor=none;align=left;verticalAlign=middle;spacingLeft=4;spacingRight=4;overflow=hidden;rotatable=0;points=[[0,0.5],[1,0.5]];portConstraint=eastwest;whiteSpace=wrap;" vertex="1" parent="5xHakERpuxY836gdrRXx-9">
          <mxGeometry y="90" width="220" height="20" as="geometry" />
        </mxCell>
        <mxCell id="5xHakERpuxY836gdrRXx-26" value="- user_id: String" style="text;html=1;strokeColor=none;fillColor=none;align=left;verticalAlign=middle;spacingLeft=4;spacingRight=4;overflow=hidden;rotatable=0;points=[[0,0.5],[1,0.5]];portConstraint=eastwest;whiteSpace=wrap;" vertex="1" parent="5xHakERpuxY836gdrRXx-9">
          <mxGeometry y="110" width="220" height="20" as="geometry" />
        </mxCell>
        <mxCell id="5xHakERpuxY836gdrRXx-27" value="- view_count: int" style="text;html=1;strokeColor=none;fillColor=none;align=left;verticalAlign=middle;spacingLeft=4;spacingRight=4;overflow=hidden;rotatable=0;points=[[0,0.5],[1,0.5]];portConstraint=eastwest;whiteSpace=wrap;" vertex="1" parent="5xHakERpuxY836gdrRXx-9">
          <mxGeometry y="130" width="220" height="20" as="geometry" />
        </mxCell>
        <mxCell id="5xHakERpuxY836gdrRXx-28" value="- like_count: int" style="text;html=1;strokeColor=none;fillColor=none;align=left;verticalAlign=middle;spacingLeft=4;spacingRight=4;overflow=hidden;rotatable=0;points=[[0,0.5],[1,0.5]];portConstraint=eastwest;whiteSpace=wrap;" vertex="1" parent="5xHakERpuxY836gdrRXx-9">
          <mxGeometry y="150" width="220" height="20" as="geometry" />
        </mxCell>
        <mxCell id="5xHakERpuxY836gdrRXx-29" value="- dislike_count: int" style="text;html=1;strokeColor=none;fillColor=none;align=left;verticalAlign=middle;spacingLeft=4;spacingRight=4;overflow=hidden;rotatable=0;points=[[0,0.5],[1,0.5]];portConstraint=eastwest;whiteSpace=wrap;" vertex="1" parent="5xHakERpuxY836gdrRXx-9">
          <mxGeometry y="170" width="220" height="20" as="geometry" />
        </mxCell>
        <mxCell id="5xHakERpuxY836gdrRXx-30" value="- created: Timestamp" style="text;html=1;strokeColor=none;fillColor=none;align=left;verticalAlign=middle;spacingLeft=4;spacingRight=4;overflow=hidden;rotatable=0;points=[[0,0.5],[1,0.5]];portConstraint=eastwest;whiteSpace=wrap;" vertex="1" parent="5xHakERpuxY836gdrRXx-9">
          <mxGeometry y="190" width="220" height="20" as="geometry" />
        </mxCell>
        <mxCell id="5xHakERpuxY836gdrRXx-31" value="- updated: Timestamp" style="text;html=1;strokeColor=none;fillColor=none;align=left;verticalAlign=middle;spacingLeft=4;spacingRight=4;overflow=hidden;rotatable=0;points=[[0,0.5],[1,0.5]];portConstraint=eastwest;whiteSpace=wrap;" vertex="1" parent="5xHakERpuxY836gdrRXx-9">
          <mxGeometry y="210" width="220" height="20" as="geometry" />
        </mxCell>
        <mxCell id="5xHakERpuxY836gdrRXx-32" value="- category: String" style="text;html=1;strokeColor=none;fillColor=none;align=left;verticalAlign=middle;spacingLeft=4;spacingRight=4;overflow=hidden;rotatable=0;points=[[0,0.5],[1,0.5]];portConstraint=eastwest;whiteSpace=wrap;" vertex="1" parent="5xHakERpuxY836gdrRXx-9">
          <mxGeometry y="230" width="220" height="20" as="geometry" />
        </mxCell>
        <mxCell id="5xHakERpuxY836gdrRXx-33" value="- thumbnail_url: String" style="text;html=1;strokeColor=none;fillColor=none;align=left;verticalAlign=middle;spacingLeft=4;spacingRight=4;overflow=hidden;rotatable=0;points=[[0,0.5],[1,0.5]];portConstraint=eastwest;whiteSpace=wrap;" vertex="1" parent="5xHakERpuxY836gdrRXx-9">
          <mxGeometry y="250" width="220" height="20" as="geometry" />
        </mxCell>
        <mxCell id="5xHakERpuxY836gdrRXx-34" value="- scene_title: String" style="text;html=1;strokeColor=none;fillColor=none;align=left;verticalAlign=middle;spacingLeft=4;spacingRight=4;overflow=hidden;rotatable=0;points=[[0,0.5],[1,0.5]];portConstraint=eastwest;whiteSpace=wrap;" vertex="1" parent="5xHakERpuxY836gdrRXx-9">
          <mxGeometry y="270" width="220" height="20" as="geometry" />
        </mxCell>
        <mxCell id="5xHakERpuxY836gdrRXx-35" value="- attraction_no: int" style="text;html=1;strokeColor=none;fillColor=none;align=left;verticalAlign=middle;spacingLeft=4;spacingRight=4;overflow=hidden;rotatable=0;points=[[0,0.5],[1,0.5]];portConstraint=eastwest;whiteSpace=wrap;" vertex="1" parent="5xHakERpuxY836gdrRXx-9">
          <mxGeometry y="290" width="220" height="20" as="geometry" />
        </mxCell>
        <mxCell id="5xHakERpuxY836gdrRXx-36" value="- attraction_title: String" style="text;html=1;strokeColor=none;fillColor=none;align=left;verticalAlign=middle;spacingLeft=4;spacingRight=4;overflow=hidden;rotatable=0;points=[[0,0.5],[1,0.5]];portConstraint=eastwest;whiteSpace=wrap;" vertex="1" parent="5xHakERpuxY836gdrRXx-9">
          <mxGeometry y="310" width="220" height="20" as="geometry" />
        </mxCell>
        <mxCell id="5xHakERpuxY836gdrRXx-14" value="" style="line;strokeWidth=1;fillColor=none;align=left;verticalAlign=middle;spacingTop=-1;spacingLeft=3;spacingRight=3;rotatable=0;labelPosition=right;points=[];portConstraint=eastwest;" vertex="1" parent="5xHakERpuxY836gdrRXx-9">
          <mxGeometry y="330" width="220" height="8" as="geometry" />
        </mxCell>
        <mxCell id="5xHakERpuxY836gdrRXx-15" value="operations" style="text;html=1;strokeColor=none;fillColor=none;align=center;verticalAlign=middle;spacingLeft=4;spacingRight=4;overflow=hidden;rotatable=0;points=[[0,0.5],[1,0.5]];portConstraint=eastwest;whiteSpace=wrap;" vertex="1" parent="5xHakERpuxY836gdrRXx-9">
          <mxGeometry y="338" width="220" height="20" as="geometry" />
        </mxCell>
        <mxCell id="5xHakERpuxY836gdrRXx-153" value="+ create(post: Post): void" style="text;html=1;strokeColor=none;fillColor=none;align=left;verticalAlign=middle;spacingLeft=4;spacingRight=4;overflow=hidden;rotatable=0;points=[[0,0.5],[1,0.5]];portConstraint=eastwest;whiteSpace=wrap;" vertex="1" parent="5xHakERpuxY836gdrRXx-9">
          <mxGeometry y="358" width="220" height="20" as="geometry" />
        </mxCell>
        <mxCell id="5xHakERpuxY836gdrRXx-154" value="+ read(postNo: int): Post" style="text;html=1;strokeColor=none;fillColor=none;align=left;verticalAlign=middle;spacingLeft=4;spacingRight=4;overflow=hidden;rotatable=0;points=[[0,0.5],[1,0.5]];portConstraint=eastwest;whiteSpace=wrap;" vertex="1" parent="5xHakERpuxY836gdrRXx-9">
          <mxGeometry y="378" width="220" height="20" as="geometry" />
        </mxCell>
        <mxCell id="5xHakERpuxY836gdrRXx-155" value="+ update(post: Post): void" style="text;html=1;strokeColor=none;fillColor=none;align=left;verticalAlign=middle;spacingLeft=4;spacingRight=4;overflow=hidden;rotatable=0;points=[[0,0.5],[1,0.5]];portConstraint=eastwest;whiteSpace=wrap;" vertex="1" parent="5xHakERpuxY836gdrRXx-9">
          <mxGeometry y="398" width="220" height="20" as="geometry" />
        </mxCell>
        <mxCell id="5xHakERpuxY836gdrRXx-156" value="+ delete( ): void" style="text;html=1;strokeColor=none;fillColor=none;align=left;verticalAlign=middle;spacingLeft=4;spacingRight=4;overflow=hidden;rotatable=0;points=[[0,0.5],[1,0.5]];portConstraint=eastwest;whiteSpace=wrap;" vertex="1" parent="5xHakERpuxY836gdrRXx-9">
          <mxGeometry y="418" width="220" height="20" as="geometry" />
        </mxCell>
        <mxCell id="5xHakERpuxY836gdrRXx-157" value="+ getComments( ): List&amp;lt;Comment&amp;gt;" style="text;html=1;strokeColor=none;fillColor=none;align=left;verticalAlign=middle;spacingLeft=4;spacingRight=4;overflow=hidden;rotatable=0;points=[[0,0.5],[1,0.5]];portConstraint=eastwest;whiteSpace=wrap;" vertex="1" parent="5xHakERpuxY836gdrRXx-9">
          <mxGeometry y="438" width="220" height="20" as="geometry" />
        </mxCell>
        <mxCell id="5xHakERpuxY836gdrRXx-69" value="Comment" style="swimlane;fontStyle=0;align=center;verticalAlign=top;childLayout=stackLayout;horizontal=1;startSize=30;horizontalStack=0;resizeParent=1;resizeParentMax=0;resizeLast=0;collapsible=0;marginBottom=0;html=1;whiteSpace=wrap;" vertex="1" parent="1">
          <mxGeometry x="-200" y="230" width="220" height="298" as="geometry" />
        </mxCell>
        <mxCell id="5xHakERpuxY836gdrRXx-70" value="attributes" style="text;html=1;strokeColor=none;fillColor=none;align=center;verticalAlign=middle;spacingLeft=4;spacingRight=4;overflow=hidden;rotatable=0;points=[[0,0.5],[1,0.5]];portConstraint=eastwest;whiteSpace=wrap;" vertex="1" parent="5xHakERpuxY836gdrRXx-69">
          <mxGeometry y="30" width="220" height="20" as="geometry" />
        </mxCell>
        <mxCell id="5xHakERpuxY836gdrRXx-71" value="- no: int" style="text;html=1;strokeColor=none;fillColor=none;align=left;verticalAlign=middle;spacingLeft=4;spacingRight=4;overflow=hidden;rotatable=0;points=[[0,0.5],[1,0.5]];portConstraint=eastwest;whiteSpace=wrap;" vertex="1" parent="5xHakERpuxY836gdrRXx-69">
          <mxGeometry y="50" width="220" height="20" as="geometry" />
        </mxCell>
        <mxCell id="5xHakERpuxY836gdrRXx-77" value="- post_no: int" style="text;html=1;strokeColor=none;fillColor=none;align=left;verticalAlign=middle;spacingLeft=4;spacingRight=4;overflow=hidden;rotatable=0;points=[[0,0.5],[1,0.5]];portConstraint=eastwest;whiteSpace=wrap;" vertex="1" parent="5xHakERpuxY836gdrRXx-69">
          <mxGeometry y="70" width="220" height="20" as="geometry" />
        </mxCell>
        <mxCell id="5xHakERpuxY836gdrRXx-78" value="- user_id: String" style="text;html=1;strokeColor=none;fillColor=none;align=left;verticalAlign=middle;spacingLeft=4;spacingRight=4;overflow=hidden;rotatable=0;points=[[0,0.5],[1,0.5]];portConstraint=eastwest;whiteSpace=wrap;" vertex="1" parent="5xHakERpuxY836gdrRXx-69">
          <mxGeometry y="90" width="220" height="20" as="geometry" />
        </mxCell>
        <mxCell id="5xHakERpuxY836gdrRXx-79" value="- parent_no: int" style="text;html=1;strokeColor=none;fillColor=none;align=left;verticalAlign=middle;spacingLeft=4;spacingRight=4;overflow=hidden;rotatable=0;points=[[0,0.5],[1,0.5]];portConstraint=eastwest;whiteSpace=wrap;" vertex="1" parent="5xHakERpuxY836gdrRXx-69">
          <mxGeometry y="110" width="220" height="20" as="geometry" />
        </mxCell>
        <mxCell id="5xHakERpuxY836gdrRXx-80" value="- content: String" style="text;html=1;strokeColor=none;fillColor=none;align=left;verticalAlign=middle;spacingLeft=4;spacingRight=4;overflow=hidden;rotatable=0;points=[[0,0.5],[1,0.5]];portConstraint=eastwest;whiteSpace=wrap;" vertex="1" parent="5xHakERpuxY836gdrRXx-69">
          <mxGeometry y="130" width="220" height="20" as="geometry" />
        </mxCell>
        <mxCell id="5xHakERpuxY836gdrRXx-81" value="- created: Timestamp" style="text;html=1;strokeColor=none;fillColor=none;align=left;verticalAlign=middle;spacingLeft=4;spacingRight=4;overflow=hidden;rotatable=0;points=[[0,0.5],[1,0.5]];portConstraint=eastwest;whiteSpace=wrap;" vertex="1" parent="5xHakERpuxY836gdrRXx-69">
          <mxGeometry y="150" width="220" height="20" as="geometry" />
        </mxCell>
        <mxCell id="5xHakERpuxY836gdrRXx-82" value="- updated: Timestamp" style="text;html=1;strokeColor=none;fillColor=none;align=left;verticalAlign=middle;spacingLeft=4;spacingRight=4;overflow=hidden;rotatable=0;points=[[0,0.5],[1,0.5]];portConstraint=eastwest;whiteSpace=wrap;" vertex="1" parent="5xHakERpuxY836gdrRXx-69">
          <mxGeometry y="170" width="220" height="20" as="geometry" />
        </mxCell>
        <mxCell id="5xHakERpuxY836gdrRXx-74" value="" style="line;strokeWidth=1;fillColor=none;align=left;verticalAlign=middle;spacingTop=-1;spacingLeft=3;spacingRight=3;rotatable=0;labelPosition=right;points=[];portConstraint=eastwest;" vertex="1" parent="5xHakERpuxY836gdrRXx-69">
          <mxGeometry y="190" width="220" height="8" as="geometry" />
        </mxCell>
        <mxCell id="5xHakERpuxY836gdrRXx-75" value="operations" style="text;html=1;strokeColor=none;fillColor=none;align=center;verticalAlign=middle;spacingLeft=4;spacingRight=4;overflow=hidden;rotatable=0;points=[[0,0.5],[1,0.5]];portConstraint=eastwest;whiteSpace=wrap;" vertex="1" parent="5xHakERpuxY836gdrRXx-69">
          <mxGeometry y="198" width="220" height="20" as="geometry" />
        </mxCell>
        <mxCell id="5xHakERpuxY836gdrRXx-158" value="+ create(comment: Comment): void" style="text;html=1;strokeColor=none;fillColor=none;align=left;verticalAlign=middle;spacingLeft=4;spacingRight=4;overflow=hidden;rotatable=0;points=[[0,0.5],[1,0.5]];portConstraint=eastwest;whiteSpace=wrap;" vertex="1" parent="5xHakERpuxY836gdrRXx-69">
          <mxGeometry y="218" width="220" height="20" as="geometry" />
        </mxCell>
        <mxCell id="5xHakERpuxY836gdrRXx-159" value="+ read(commentNo: int): Comment" style="text;html=1;strokeColor=none;fillColor=none;align=left;verticalAlign=middle;spacingLeft=4;spacingRight=4;overflow=hidden;rotatable=0;points=[[0,0.5],[1,0.5]];portConstraint=eastwest;whiteSpace=wrap;" vertex="1" parent="5xHakERpuxY836gdrRXx-69">
          <mxGeometry y="238" width="220" height="20" as="geometry" />
        </mxCell>
        <mxCell id="5xHakERpuxY836gdrRXx-160" value="+ update(comment: Comment): void" style="text;html=1;strokeColor=none;fillColor=none;align=left;verticalAlign=middle;spacingLeft=4;spacingRight=4;overflow=hidden;rotatable=0;points=[[0,0.5],[1,0.5]];portConstraint=eastwest;whiteSpace=wrap;" vertex="1" parent="5xHakERpuxY836gdrRXx-69">
          <mxGeometry y="258" width="220" height="20" as="geometry" />
        </mxCell>
        <mxCell id="5xHakERpuxY836gdrRXx-161" value="+ delete( ): void" style="text;html=1;strokeColor=none;fillColor=none;align=left;verticalAlign=middle;spacingLeft=4;spacingRight=4;overflow=hidden;rotatable=0;points=[[0,0.5],[1,0.5]];portConstraint=eastwest;whiteSpace=wrap;" vertex="1" parent="5xHakERpuxY836gdrRXx-69">
          <mxGeometry y="278" width="220" height="20" as="geometry" />
        </mxCell>
        <mxCell id="5xHakERpuxY836gdrRXx-83" value="Trip" style="swimlane;fontStyle=0;align=center;verticalAlign=top;childLayout=stackLayout;horizontal=1;startSize=30;horizontalStack=0;resizeParent=1;resizeParentMax=0;resizeLast=0;collapsible=0;marginBottom=0;html=1;whiteSpace=wrap;" vertex="1" parent="1">
          <mxGeometry x="460.88" y="220" width="260" height="358" as="geometry" />
        </mxCell>
        <mxCell id="5xHakERpuxY836gdrRXx-84" value="attributes" style="text;html=1;strokeColor=none;fillColor=none;align=center;verticalAlign=middle;spacingLeft=4;spacingRight=4;overflow=hidden;rotatable=0;points=[[0,0.5],[1,0.5]];portConstraint=eastwest;whiteSpace=wrap;" vertex="1" parent="5xHakERpuxY836gdrRXx-83">
          <mxGeometry y="30" width="260" height="20" as="geometry" />
        </mxCell>
        <mxCell id="5xHakERpuxY836gdrRXx-85" value="- no: int" style="text;html=1;strokeColor=none;fillColor=none;align=left;verticalAlign=middle;spacingLeft=4;spacingRight=4;overflow=hidden;rotatable=0;points=[[0,0.5],[1,0.5]];portConstraint=eastwest;whiteSpace=wrap;" vertex="1" parent="5xHakERpuxY836gdrRXx-83">
          <mxGeometry y="50" width="260" height="20" as="geometry" />
        </mxCell>
        <mxCell id="5xHakERpuxY836gdrRXx-92" value="- user_id: String" style="text;html=1;strokeColor=none;fillColor=none;align=left;verticalAlign=middle;spacingLeft=4;spacingRight=4;overflow=hidden;rotatable=0;points=[[0,0.5],[1,0.5]];portConstraint=eastwest;whiteSpace=wrap;" vertex="1" parent="5xHakERpuxY836gdrRXx-83">
          <mxGeometry y="70" width="260" height="20" as="geometry" />
        </mxCell>
        <mxCell id="5xHakERpuxY836gdrRXx-93" value="- title: String" style="text;html=1;strokeColor=none;fillColor=none;align=left;verticalAlign=middle;spacingLeft=4;spacingRight=4;overflow=hidden;rotatable=0;points=[[0,0.5],[1,0.5]];portConstraint=eastwest;whiteSpace=wrap;" vertex="1" parent="5xHakERpuxY836gdrRXx-83">
          <mxGeometry y="90" width="260" height="20" as="geometry" />
        </mxCell>
        <mxCell id="5xHakERpuxY836gdrRXx-94" value="- description: String" style="text;html=1;strokeColor=none;fillColor=none;align=left;verticalAlign=middle;spacingLeft=4;spacingRight=4;overflow=hidden;rotatable=0;points=[[0,0.5],[1,0.5]];portConstraint=eastwest;whiteSpace=wrap;" vertex="1" parent="5xHakERpuxY836gdrRXx-83">
          <mxGeometry y="110" width="260" height="20" as="geometry" />
        </mxCell>
        <mxCell id="5xHakERpuxY836gdrRXx-95" value="- start_date: Date" style="text;html=1;strokeColor=none;fillColor=none;align=left;verticalAlign=middle;spacingLeft=4;spacingRight=4;overflow=hidden;rotatable=0;points=[[0,0.5],[1,0.5]];portConstraint=eastwest;whiteSpace=wrap;" vertex="1" parent="5xHakERpuxY836gdrRXx-83">
          <mxGeometry y="130" width="260" height="20" as="geometry" />
        </mxCell>
        <mxCell id="5xHakERpuxY836gdrRXx-97" value="- end_date: Date" style="text;html=1;strokeColor=none;fillColor=none;align=left;verticalAlign=middle;spacingLeft=4;spacingRight=4;overflow=hidden;rotatable=0;points=[[0,0.5],[1,0.5]];portConstraint=eastwest;whiteSpace=wrap;" vertex="1" parent="5xHakERpuxY836gdrRXx-83">
          <mxGeometry y="150" width="260" height="20" as="geometry" />
        </mxCell>
        <mxCell id="5xHakERpuxY836gdrRXx-98" value="- created: Timestamp" style="text;html=1;strokeColor=none;fillColor=none;align=left;verticalAlign=middle;spacingLeft=4;spacingRight=4;overflow=hidden;rotatable=0;points=[[0,0.5],[1,0.5]];portConstraint=eastwest;whiteSpace=wrap;" vertex="1" parent="5xHakERpuxY836gdrRXx-83">
          <mxGeometry y="170" width="260" height="20" as="geometry" />
        </mxCell>
        <mxCell id="5xHakERpuxY836gdrRXx-99" value="- updated: Timestamp" style="text;html=1;strokeColor=none;fillColor=none;align=left;verticalAlign=middle;spacingLeft=4;spacingRight=4;overflow=hidden;rotatable=0;points=[[0,0.5],[1,0.5]];portConstraint=eastwest;whiteSpace=wrap;" vertex="1" parent="5xHakERpuxY836gdrRXx-83">
          <mxGeometry y="190" width="260" height="20" as="geometry" />
        </mxCell>
        <mxCell id="5xHakERpuxY836gdrRXx-88" value="" style="line;strokeWidth=1;fillColor=none;align=left;verticalAlign=middle;spacingTop=-1;spacingLeft=3;spacingRight=3;rotatable=0;labelPosition=right;points=[];portConstraint=eastwest;" vertex="1" parent="5xHakERpuxY836gdrRXx-83">
          <mxGeometry y="210" width="260" height="8" as="geometry" />
        </mxCell>
        <mxCell id="5xHakERpuxY836gdrRXx-89" value="operations" style="text;html=1;strokeColor=none;fillColor=none;align=center;verticalAlign=middle;spacingLeft=4;spacingRight=4;overflow=hidden;rotatable=0;points=[[0,0.5],[1,0.5]];portConstraint=eastwest;whiteSpace=wrap;" vertex="1" parent="5xHakERpuxY836gdrRXx-83">
          <mxGeometry y="218" width="260" height="20" as="geometry" />
        </mxCell>
        <mxCell id="5xHakERpuxY836gdrRXx-186" value="+ create(trip: Trip): void" style="text;html=1;strokeColor=none;fillColor=none;align=left;verticalAlign=middle;spacingLeft=4;spacingRight=4;overflow=hidden;rotatable=0;points=[[0,0.5],[1,0.5]];portConstraint=eastwest;whiteSpace=wrap;" vertex="1" parent="5xHakERpuxY836gdrRXx-83">
          <mxGeometry y="238" width="260" height="20" as="geometry" />
        </mxCell>
        <mxCell id="5xHakERpuxY836gdrRXx-187" value="+ read(tripNo: int): void" style="text;html=1;strokeColor=none;fillColor=none;align=left;verticalAlign=middle;spacingLeft=4;spacingRight=4;overflow=hidden;rotatable=0;points=[[0,0.5],[1,0.5]];portConstraint=eastwest;whiteSpace=wrap;" vertex="1" parent="5xHakERpuxY836gdrRXx-83">
          <mxGeometry y="258" width="260" height="20" as="geometry" />
        </mxCell>
        <mxCell id="5xHakERpuxY836gdrRXx-188" value="+ update(trip: Trip): void" style="text;html=1;strokeColor=none;fillColor=none;align=left;verticalAlign=middle;spacingLeft=4;spacingRight=4;overflow=hidden;rotatable=0;points=[[0,0.5],[1,0.5]];portConstraint=eastwest;whiteSpace=wrap;" vertex="1" parent="5xHakERpuxY836gdrRXx-83">
          <mxGeometry y="278" width="260" height="20" as="geometry" />
        </mxCell>
        <mxCell id="5xHakERpuxY836gdrRXx-189" value="+ delete( ): void" style="text;html=1;strokeColor=none;fillColor=none;align=left;verticalAlign=middle;spacingLeft=4;spacingRight=4;overflow=hidden;rotatable=0;points=[[0,0.5],[1,0.5]];portConstraint=eastwest;whiteSpace=wrap;" vertex="1" parent="5xHakERpuxY836gdrRXx-83">
          <mxGeometry y="298" width="260" height="20" as="geometry" />
        </mxCell>
        <mxCell id="5xHakERpuxY836gdrRXx-190" value="+ addAttraction(attraction: Attraction): void" style="text;html=1;strokeColor=none;fillColor=none;align=left;verticalAlign=middle;spacingLeft=4;spacingRight=4;overflow=hidden;rotatable=0;points=[[0,0.5],[1,0.5]];portConstraint=eastwest;whiteSpace=wrap;" vertex="1" parent="5xHakERpuxY836gdrRXx-83">
          <mxGeometry y="318" width="260" height="20" as="geometry" />
        </mxCell>
        <mxCell id="5xHakERpuxY836gdrRXx-191" value="+ removeAttraction(attractionNo: int): void" style="text;html=1;strokeColor=none;fillColor=none;align=left;verticalAlign=middle;spacingLeft=4;spacingRight=4;overflow=hidden;rotatable=0;points=[[0,0.5],[1,0.5]];portConstraint=eastwest;whiteSpace=wrap;" vertex="1" parent="5xHakERpuxY836gdrRXx-83">
          <mxGeometry y="338" width="260" height="20" as="geometry" />
        </mxCell>
        <mxCell id="5xHakERpuxY836gdrRXx-100" value="Attraction" style="swimlane;fontStyle=0;align=center;verticalAlign=top;childLayout=stackLayout;horizontal=1;startSize=30;horizontalStack=0;resizeParent=1;resizeParentMax=0;resizeLast=0;collapsible=0;marginBottom=0;html=1;whiteSpace=wrap;" vertex="1" parent="1">
          <mxGeometry x="450" y="700" width="240" height="373" as="geometry" />
        </mxCell>
        <mxCell id="5xHakERpuxY836gdrRXx-101" value="attributes" style="text;html=1;strokeColor=none;fillColor=none;align=center;verticalAlign=middle;spacingLeft=4;spacingRight=4;overflow=hidden;rotatable=0;points=[[0,0.5],[1,0.5]];portConstraint=eastwest;whiteSpace=wrap;" vertex="1" parent="5xHakERpuxY836gdrRXx-100">
          <mxGeometry y="30" width="240" height="35" as="geometry" />
        </mxCell>
        <mxCell id="5xHakERpuxY836gdrRXx-104" value="- no: int" style="text;html=1;strokeColor=none;fillColor=none;align=left;verticalAlign=middle;spacingLeft=4;spacingRight=4;overflow=hidden;rotatable=0;points=[[0,0.5],[1,0.5]];portConstraint=eastwest;whiteSpace=wrap;" vertex="1" parent="5xHakERpuxY836gdrRXx-100">
          <mxGeometry y="65" width="240" height="20" as="geometry" />
        </mxCell>
        <mxCell id="5xHakERpuxY836gdrRXx-166" value="- title: String" style="text;html=1;strokeColor=none;fillColor=none;align=left;verticalAlign=middle;spacingLeft=4;spacingRight=4;overflow=hidden;rotatable=0;points=[[0,0.5],[1,0.5]];portConstraint=eastwest;whiteSpace=wrap;" vertex="1" parent="5xHakERpuxY836gdrRXx-100">
          <mxGeometry y="85" width="240" height="20" as="geometry" />
        </mxCell>
        <mxCell id="5xHakERpuxY836gdrRXx-112" value="- sceneTitle: String" style="text;html=1;strokeColor=none;fillColor=none;align=left;verticalAlign=middle;spacingLeft=4;spacingRight=4;overflow=hidden;rotatable=0;points=[[0,0.5],[1,0.5]];portConstraint=eastwest;whiteSpace=wrap;" vertex="1" parent="5xHakERpuxY836gdrRXx-100">
          <mxGeometry y="105" width="240" height="20" as="geometry" />
        </mxCell>
        <mxCell id="5xHakERpuxY836gdrRXx-147" value="- contentTypeId: int" style="text;html=1;strokeColor=none;fillColor=none;align=left;verticalAlign=middle;spacingLeft=4;spacingRight=4;overflow=hidden;rotatable=0;points=[[0,0.5],[1,0.5]];portConstraint=eastwest;whiteSpace=wrap;" vertex="1" parent="5xHakERpuxY836gdrRXx-100">
          <mxGeometry y="125" width="240" height="20" as="geometry" />
        </mxCell>
        <mxCell id="5xHakERpuxY836gdrRXx-167" value="- areaCode: int" style="text;html=1;strokeColor=none;fillColor=none;align=left;verticalAlign=middle;spacingLeft=4;spacingRight=4;overflow=hidden;rotatable=0;points=[[0,0.5],[1,0.5]];portConstraint=eastwest;whiteSpace=wrap;" vertex="1" parent="5xHakERpuxY836gdrRXx-100">
          <mxGeometry y="145" width="240" height="20" as="geometry" />
        </mxCell>
        <mxCell id="5xHakERpuxY836gdrRXx-168" value="- address: String" style="text;html=1;strokeColor=none;fillColor=none;align=left;verticalAlign=middle;spacingLeft=4;spacingRight=4;overflow=hidden;rotatable=0;points=[[0,0.5],[1,0.5]];portConstraint=eastwest;whiteSpace=wrap;" vertex="1" parent="5xHakERpuxY836gdrRXx-100">
          <mxGeometry y="165" width="240" height="20" as="geometry" />
        </mxCell>
        <mxCell id="5xHakERpuxY836gdrRXx-169" value="- lattitude: Decimal" style="text;html=1;strokeColor=none;fillColor=none;align=left;verticalAlign=middle;spacingLeft=4;spacingRight=4;overflow=hidden;rotatable=0;points=[[0,0.5],[1,0.5]];portConstraint=eastwest;whiteSpace=wrap;" vertex="1" parent="5xHakERpuxY836gdrRXx-100">
          <mxGeometry y="185" width="240" height="20" as="geometry" />
        </mxCell>
        <mxCell id="5xHakERpuxY836gdrRXx-171" value="- longitude: Decimal" style="text;html=1;strokeColor=none;fillColor=none;align=left;verticalAlign=middle;spacingLeft=4;spacingRight=4;overflow=hidden;rotatable=0;points=[[0,0.5],[1,0.5]];portConstraint=eastwest;whiteSpace=wrap;" vertex="1" parent="5xHakERpuxY836gdrRXx-100">
          <mxGeometry y="205" width="240" height="20" as="geometry" />
        </mxCell>
        <mxCell id="5xHakERpuxY836gdrRXx-170" value="- overview: String" style="text;html=1;strokeColor=none;fillColor=none;align=left;verticalAlign=middle;spacingLeft=4;spacingRight=4;overflow=hidden;rotatable=0;points=[[0,0.5],[1,0.5]];portConstraint=eastwest;whiteSpace=wrap;" vertex="1" parent="5xHakERpuxY836gdrRXx-100">
          <mxGeometry y="225" width="240" height="20" as="geometry" />
        </mxCell>
        <mxCell id="5xHakERpuxY836gdrRXx-172" value="- img: String" style="text;html=1;strokeColor=none;fillColor=none;align=left;verticalAlign=middle;spacingLeft=4;spacingRight=4;overflow=hidden;rotatable=0;points=[[0,0.5],[1,0.5]];portConstraint=eastwest;whiteSpace=wrap;" vertex="1" parent="5xHakERpuxY836gdrRXx-100">
          <mxGeometry y="245" width="240" height="20" as="geometry" />
        </mxCell>
        <mxCell id="5xHakERpuxY836gdrRXx-173" value="- tel: String" style="text;html=1;strokeColor=none;fillColor=none;align=left;verticalAlign=middle;spacingLeft=4;spacingRight=4;overflow=hidden;rotatable=0;points=[[0,0.5],[1,0.5]];portConstraint=eastwest;whiteSpace=wrap;" vertex="1" parent="5xHakERpuxY836gdrRXx-100">
          <mxGeometry y="265" width="240" height="20" as="geometry" />
        </mxCell>
        <mxCell id="5xHakERpuxY836gdrRXx-105" value="" style="line;strokeWidth=1;fillColor=none;align=left;verticalAlign=middle;spacingTop=-1;spacingLeft=3;spacingRight=3;rotatable=0;labelPosition=right;points=[];portConstraint=eastwest;" vertex="1" parent="5xHakERpuxY836gdrRXx-100">
          <mxGeometry y="285" width="240" height="8" as="geometry" />
        </mxCell>
        <mxCell id="5xHakERpuxY836gdrRXx-106" value="operations" style="text;html=1;strokeColor=none;fillColor=none;align=center;verticalAlign=middle;spacingLeft=4;spacingRight=4;overflow=hidden;rotatable=0;points=[[0,0.5],[1,0.5]];portConstraint=eastwest;whiteSpace=wrap;" vertex="1" parent="5xHakERpuxY836gdrRXx-100">
          <mxGeometry y="293" width="240" height="20" as="geometry" />
        </mxCell>
        <mxCell id="5xHakERpuxY836gdrRXx-107" value="+ getDetails(attractionNo: int): Attraction" style="text;html=1;strokeColor=none;fillColor=none;align=left;verticalAlign=middle;spacingLeft=4;spacingRight=4;overflow=hidden;rotatable=0;points=[[0,0.5],[1,0.5]];portConstraint=eastwest;whiteSpace=wrap;" vertex="1" parent="5xHakERpuxY836gdrRXx-100">
          <mxGeometry y="313" width="240" height="20" as="geometry" />
        </mxCell>
        <mxCell id="5xHakERpuxY836gdrRXx-192" value="+ getAttractions( ): List&amp;lt;Attraction&amp;gt;" style="text;html=1;strokeColor=none;fillColor=none;align=left;verticalAlign=middle;spacingLeft=4;spacingRight=4;overflow=hidden;rotatable=0;points=[[0,0.5],[1,0.5]];portConstraint=eastwest;whiteSpace=wrap;" vertex="1" parent="5xHakERpuxY836gdrRXx-100">
          <mxGeometry y="333" width="240" height="20" as="geometry" />
        </mxCell>
        <mxCell id="5xHakERpuxY836gdrRXx-110" value="+ search(filter: Map): List&amp;lt;Attraction&amp;gt;" style="text;html=1;strokeColor=none;fillColor=none;align=left;verticalAlign=middle;spacingLeft=4;spacingRight=4;overflow=hidden;rotatable=0;points=[[0,0.5],[1,0.5]];portConstraint=eastwest;whiteSpace=wrap;" vertex="1" parent="5xHakERpuxY836gdrRXx-100">
          <mxGeometry y="353" width="240" height="20" as="geometry" />
        </mxCell>
        <mxCell id="5xHakERpuxY836gdrRXx-113" value="Media" style="swimlane;fontStyle=0;align=center;verticalAlign=top;childLayout=stackLayout;horizontal=1;startSize=30;horizontalStack=0;resizeParent=1;resizeParentMax=0;resizeLast=0;collapsible=0;marginBottom=0;html=1;whiteSpace=wrap;" vertex="1" parent="1">
          <mxGeometry x="-240" y="662" width="250" height="218" as="geometry" />
        </mxCell>
        <mxCell id="5xHakERpuxY836gdrRXx-114" value="attributes" style="text;html=1;strokeColor=none;fillColor=none;align=center;verticalAlign=middle;spacingLeft=4;spacingRight=4;overflow=hidden;rotatable=0;points=[[0,0.5],[1,0.5]];portConstraint=eastwest;whiteSpace=wrap;" vertex="1" parent="5xHakERpuxY836gdrRXx-113">
          <mxGeometry y="30" width="250" height="20" as="geometry" />
        </mxCell>
        <mxCell id="5xHakERpuxY836gdrRXx-115" value="- no: int" style="text;html=1;strokeColor=none;fillColor=none;align=left;verticalAlign=middle;spacingLeft=4;spacingRight=4;overflow=hidden;rotatable=0;points=[[0,0.5],[1,0.5]];portConstraint=eastwest;whiteSpace=wrap;" vertex="1" parent="5xHakERpuxY836gdrRXx-113">
          <mxGeometry y="50" width="250" height="20" as="geometry" />
        </mxCell>
        <mxCell id="5xHakERpuxY836gdrRXx-117" value="- postNo: int" style="text;html=1;strokeColor=none;fillColor=none;align=left;verticalAlign=middle;spacingLeft=4;spacingRight=4;overflow=hidden;rotatable=0;points=[[0,0.5],[1,0.5]];portConstraint=eastwest;whiteSpace=wrap;" vertex="1" parent="5xHakERpuxY836gdrRXx-113">
          <mxGeometry y="70" width="250" height="20" as="geometry" />
        </mxCell>
        <mxCell id="5xHakERpuxY836gdrRXx-162" value="- url: String" style="text;html=1;strokeColor=none;fillColor=none;align=left;verticalAlign=middle;spacingLeft=4;spacingRight=4;overflow=hidden;rotatable=0;points=[[0,0.5],[1,0.5]];portConstraint=eastwest;whiteSpace=wrap;" vertex="1" parent="5xHakERpuxY836gdrRXx-113">
          <mxGeometry y="90" width="250" height="20" as="geometry" />
        </mxCell>
        <mxCell id="5xHakERpuxY836gdrRXx-163" value="- mediaType: Enum" style="text;html=1;strokeColor=none;fillColor=none;align=left;verticalAlign=middle;spacingLeft=4;spacingRight=4;overflow=hidden;rotatable=0;points=[[0,0.5],[1,0.5]];portConstraint=eastwest;whiteSpace=wrap;" vertex="1" parent="5xHakERpuxY836gdrRXx-113">
          <mxGeometry y="110" width="250" height="20" as="geometry" />
        </mxCell>
        <mxCell id="5xHakERpuxY836gdrRXx-164" value="- alttext: String" style="text;html=1;strokeColor=none;fillColor=none;align=left;verticalAlign=middle;spacingLeft=4;spacingRight=4;overflow=hidden;rotatable=0;points=[[0,0.5],[1,0.5]];portConstraint=eastwest;whiteSpace=wrap;" vertex="1" parent="5xHakERpuxY836gdrRXx-113">
          <mxGeometry y="130" width="250" height="20" as="geometry" />
        </mxCell>
        <mxCell id="5xHakERpuxY836gdrRXx-118" value="" style="line;strokeWidth=1;fillColor=none;align=left;verticalAlign=middle;spacingTop=-1;spacingLeft=3;spacingRight=3;rotatable=0;labelPosition=right;points=[];portConstraint=eastwest;" vertex="1" parent="5xHakERpuxY836gdrRXx-113">
          <mxGeometry y="150" width="250" height="8" as="geometry" />
        </mxCell>
        <mxCell id="5xHakERpuxY836gdrRXx-119" value="operations" style="text;html=1;strokeColor=none;fillColor=none;align=center;verticalAlign=middle;spacingLeft=4;spacingRight=4;overflow=hidden;rotatable=0;points=[[0,0.5],[1,0.5]];portConstraint=eastwest;whiteSpace=wrap;" vertex="1" parent="5xHakERpuxY836gdrRXx-113">
          <mxGeometry y="158" width="250" height="20" as="geometry" />
        </mxCell>
        <mxCell id="5xHakERpuxY836gdrRXx-120" value="+ upload(url: String, mediaType: Enum): void" style="text;html=1;strokeColor=none;fillColor=none;align=left;verticalAlign=middle;spacingLeft=4;spacingRight=4;overflow=hidden;rotatable=0;points=[[0,0.5],[1,0.5]];portConstraint=eastwest;whiteSpace=wrap;" vertex="1" parent="5xHakERpuxY836gdrRXx-113">
          <mxGeometry y="178" width="250" height="20" as="geometry" />
        </mxCell>
        <mxCell id="5xHakERpuxY836gdrRXx-165" value="+ delete( ): void" style="text;html=1;strokeColor=none;fillColor=none;align=left;verticalAlign=middle;spacingLeft=4;spacingRight=4;overflow=hidden;rotatable=0;points=[[0,0.5],[1,0.5]];portConstraint=eastwest;whiteSpace=wrap;" vertex="1" parent="5xHakERpuxY836gdrRXx-113">
          <mxGeometry y="198" width="250" height="20" as="geometry" />
        </mxCell>
        <mxCell id="5xHakERpuxY836gdrRXx-196" value="" style="endArrow=none;html=1;rounded=0;exitX=0;exitY=0;exitDx=0;exitDy=0;entryX=0.714;entryY=1.1;entryDx=0;entryDy=0;entryPerimeter=0;" edge="1" parent="1" source="5xHakERpuxY836gdrRXx-9" target="5xHakERpuxY836gdrRXx-161">
          <mxGeometry relative="1" as="geometry">
            <mxPoint x="290" y="560" as="sourcePoint" />
            <mxPoint x="450" y="560" as="targetPoint" />
          </mxGeometry>
        </mxCell>
        <mxCell id="5xHakERpuxY836gdrRXx-197" value="1" style="resizable=0;html=1;whiteSpace=wrap;align=left;verticalAlign=bottom;" connectable="0" vertex="1" parent="5xHakERpuxY836gdrRXx-196">
          <mxGeometry x="-1" relative="1" as="geometry" />
        </mxCell>
        <mxCell id="5xHakERpuxY836gdrRXx-198" value="0..*" style="resizable=0;html=1;whiteSpace=wrap;align=right;verticalAlign=bottom;" connectable="0" vertex="1" parent="5xHakERpuxY836gdrRXx-196">
          <mxGeometry x="1" relative="1" as="geometry" />
        </mxCell>
        <mxCell id="5xHakERpuxY836gdrRXx-199" value="" style="endArrow=none;html=1;rounded=0;exitX=0;exitY=0.5;exitDx=0;exitDy=0;entryX=1.012;entryY=-0.1;entryDx=0;entryDy=0;entryPerimeter=0;" edge="1" parent="1" source="5xHakERpuxY836gdrRXx-26" target="5xHakERpuxY836gdrRXx-163">
          <mxGeometry relative="1" as="geometry">
            <mxPoint x="119.99999999999991" y="912" as="sourcePoint" />
            <mxPoint x="-34.1" y="630" as="targetPoint" />
          </mxGeometry>
        </mxCell>
        <mxCell id="5xHakERpuxY836gdrRXx-200" value="1" style="resizable=0;html=1;whiteSpace=wrap;align=left;verticalAlign=bottom;" connectable="0" vertex="1" parent="5xHakERpuxY836gdrRXx-199">
          <mxGeometry x="-1" relative="1" as="geometry" />
        </mxCell>
        <mxCell id="5xHakERpuxY836gdrRXx-201" value="0..*" style="resizable=0;html=1;whiteSpace=wrap;align=right;verticalAlign=bottom;" connectable="0" vertex="1" parent="5xHakERpuxY836gdrRXx-199">
          <mxGeometry x="1" relative="1" as="geometry" />
        </mxCell>
        <mxCell id="5xHakERpuxY836gdrRXx-202" value="" style="endArrow=none;html=1;rounded=0;exitX=0.868;exitY=0.9;exitDx=0;exitDy=0;exitPerimeter=0;entryX=0.818;entryY=-0.007;entryDx=0;entryDy=0;entryPerimeter=0;" edge="1" parent="1" source="5xHakERpuxY836gdrRXx-151" target="5xHakERpuxY836gdrRXx-9">
          <mxGeometry relative="1" as="geometry">
            <mxPoint x="213" y="630" as="sourcePoint" />
            <mxPoint x="320" y="600" as="targetPoint" />
          </mxGeometry>
        </mxCell>
        <mxCell id="5xHakERpuxY836gdrRXx-203" value="1" style="resizable=0;html=1;whiteSpace=wrap;align=left;verticalAlign=bottom;" connectable="0" vertex="1" parent="5xHakERpuxY836gdrRXx-202">
          <mxGeometry x="-1" relative="1" as="geometry" />
        </mxCell>
        <mxCell id="5xHakERpuxY836gdrRXx-204" value="0..*" style="resizable=0;html=1;whiteSpace=wrap;align=right;verticalAlign=bottom;" connectable="0" vertex="1" parent="5xHakERpuxY836gdrRXx-202">
          <mxGeometry x="1" relative="1" as="geometry" />
        </mxCell>
        <mxCell id="5xHakERpuxY836gdrRXx-205" value="" style="endArrow=none;html=1;rounded=0;exitX=1;exitY=0.5;exitDx=0;exitDy=0;entryX=-0.004;entryY=0.1;entryDx=0;entryDy=0;entryPerimeter=0;" edge="1" parent="1" source="5xHakERpuxY836gdrRXx-7" target="5xHakERpuxY836gdrRXx-89">
          <mxGeometry relative="1" as="geometry">
            <mxPoint x="425" y="520" as="sourcePoint" />
            <mxPoint x="414" y="631" as="targetPoint" />
          </mxGeometry>
        </mxCell>
        <mxCell id="5xHakERpuxY836gdrRXx-206" value="1" style="resizable=0;html=1;whiteSpace=wrap;align=left;verticalAlign=bottom;" connectable="0" vertex="1" parent="5xHakERpuxY836gdrRXx-205">
          <mxGeometry x="-1" relative="1" as="geometry" />
        </mxCell>
        <mxCell id="5xHakERpuxY836gdrRXx-207" value="0..*" style="resizable=0;html=1;whiteSpace=wrap;align=right;verticalAlign=bottom;" connectable="0" vertex="1" parent="5xHakERpuxY836gdrRXx-205">
          <mxGeometry x="1" relative="1" as="geometry">
            <mxPoint x="-9" y="11" as="offset" />
          </mxGeometry>
        </mxCell>
        <mxCell id="5xHakERpuxY836gdrRXx-208" value="" style="endArrow=none;html=1;rounded=0;exitX=0.497;exitY=1.05;exitDx=0;exitDy=0;entryX=0.5;entryY=0;entryDx=0;entryDy=0;exitPerimeter=0;" edge="1" parent="1" source="5xHakERpuxY836gdrRXx-191" target="5xHakERpuxY836gdrRXx-100">
          <mxGeometry relative="1" as="geometry">
            <mxPoint x="430" y="630" as="sourcePoint" />
            <mxPoint x="550" y="682" as="targetPoint" />
          </mxGeometry>
        </mxCell>
        <mxCell id="5xHakERpuxY836gdrRXx-209" value="1" style="resizable=0;html=1;whiteSpace=wrap;align=left;verticalAlign=bottom;" connectable="0" vertex="1" parent="5xHakERpuxY836gdrRXx-208">
          <mxGeometry x="-1" relative="1" as="geometry">
            <mxPoint x="4" y="24" as="offset" />
          </mxGeometry>
        </mxCell>
        <mxCell id="5xHakERpuxY836gdrRXx-210" value="0..*" style="resizable=0;html=1;whiteSpace=wrap;align=right;verticalAlign=bottom;" connectable="0" vertex="1" parent="5xHakERpuxY836gdrRXx-208">
          <mxGeometry x="1" relative="1" as="geometry">
            <mxPoint y="-4" as="offset" />
          </mxGeometry>
        </mxCell>
        <mxCell id="5xHakERpuxY836gdrRXx-211" value="" style="endArrow=none;html=1;rounded=0;exitX=0.009;exitY=0.15;exitDx=0;exitDy=0;entryX=1;entryY=0.5;entryDx=0;entryDy=0;exitPerimeter=0;" edge="1" parent="1" source="5xHakERpuxY836gdrRXx-7" target="5xHakERpuxY836gdrRXx-80">
          <mxGeometry relative="1" as="geometry">
            <mxPoint x="113" y="410" as="sourcePoint" />
            <mxPoint x="-50" y="290" as="targetPoint" />
          </mxGeometry>
        </mxCell>
        <mxCell id="5xHakERpuxY836gdrRXx-212" value="1" style="resizable=0;html=1;whiteSpace=wrap;align=left;verticalAlign=bottom;" connectable="0" vertex="1" parent="5xHakERpuxY836gdrRXx-211">
          <mxGeometry x="-1" relative="1" as="geometry">
            <mxPoint x="-16" y="18" as="offset" />
          </mxGeometry>
        </mxCell>
        <mxCell id="5xHakERpuxY836gdrRXx-213" value="0..*" style="resizable=0;html=1;whiteSpace=wrap;align=right;verticalAlign=bottom;" connectable="0" vertex="1" parent="5xHakERpuxY836gdrRXx-211">
          <mxGeometry x="1" relative="1" as="geometry">
            <mxPoint x="24" as="offset" />
          </mxGeometry>
        </mxCell>
        <mxCell id="5xHakERpuxY836gdrRXx-214" value="" style="endArrow=none;html=1;rounded=0;exitX=0;exitY=0.5;exitDx=0;exitDy=0;entryX=1;entryY=0.5;entryDx=0;entryDy=0;" edge="1" parent="1" source="5xHakERpuxY836gdrRXx-167" target="5xHakERpuxY836gdrRXx-30">
          <mxGeometry relative="1" as="geometry">
            <mxPoint x="447" y="860" as="sourcePoint" />
            <mxPoint x="340" y="860" as="targetPoint" />
          </mxGeometry>
        </mxCell>
        <mxCell id="5xHakERpuxY836gdrRXx-215" value="1" style="resizable=0;html=1;whiteSpace=wrap;align=left;verticalAlign=bottom;" connectable="0" vertex="1" parent="5xHakERpuxY836gdrRXx-214">
          <mxGeometry x="-1" relative="1" as="geometry">
            <mxPoint x="-13" y="-1" as="offset" />
          </mxGeometry>
        </mxCell>
        <mxCell id="5xHakERpuxY836gdrRXx-216" value="1" style="resizable=0;html=1;whiteSpace=wrap;align=right;verticalAlign=bottom;" connectable="0" vertex="1" parent="5xHakERpuxY836gdrRXx-214">
          <mxGeometry x="1" relative="1" as="geometry">
            <mxPoint x="13" as="offset" />
          </mxGeometry>
        </mxCell>
      </root>
    </mxGraphModel>
  </diagram>
</mxfile>
